<svg width="132" height="19" viewBox="0 0 132 19" fill="none" xmlns="http://www.w3.org/2000/svg">
<g clip-path="url(#clip0_69_508)">
<path d="M122.021 14.7908L116.146 18.079L117.458 11.4767L112.515 6.90518L119.2 6.11262L122.021 0L124.841 6.11362L131.527 6.90618L126.583 11.4767L127.896 18.08L122.021 14.7908Z" fill="#007BFF"/>
<path d="M94.0053 14.7908L88.1305 18.079L89.4428 11.4767L84.4995 6.90518L91.1848 6.11262L94.0053 0L96.8257 6.11362L103.511 6.90618L98.5677 11.4767L99.88 18.08L94.0053 14.7908Z" fill="#007BFF"/>
<path d="M65.9901 14.7908L60.1154 18.079L61.4276 11.4767L56.4844 6.90518L63.1697 6.11262L65.9901 0L68.8106 6.11362L75.4959 6.90618L70.5526 11.4767L71.8649 18.08L65.9901 14.7908Z" fill="#007BFF"/>
<path d="M37.9745 14.7908L32.0997 18.079L33.412 11.4767L28.4688 6.90518L35.1541 6.11262L37.9745 0L40.7949 6.11362L47.4802 6.90618L42.537 11.4767L43.8492 18.08L37.9745 14.7908Z" fill="#007BFF"/>
<path d="M9.95887 14.7908L4.08412 18.079L5.39639 11.4767L0.453125 6.90518L7.13843 6.11262L9.95887 0L12.7793 6.11362L19.4646 6.90618L14.5213 11.4767L15.8336 18.08L9.95887 14.7908Z" fill="#007BFF"/>
</g>
<defs>
<clipPath id="clip0_69_508">
<rect width="131.074" height="18.08" fill="white" transform="translate(0.453125)"/>
</clipPath>
</defs>
</svg>
