<svg width="290" height="65" viewBox="0 0 290 65" fill="none" xmlns="http://www.w3.org/2000/svg">
<g clip-path="url(#clip0_201_707)">
<mask id="mask0_201_707" style="mask-type:luminance" maskUnits="userSpaceOnUse" x="0" y="0" width="289" height="65">
<path d="M288.567 6.10352e-05H0.605103V64.7965H288.567V6.10352e-05Z" fill="white"/>
</mask>
<g mask="url(#mask0_201_707)">
<path d="M20.9753 11.8383C22.7529 12.9574 24.0493 14.4887 24.8646 16.4224V6.10352e-05H34.7943V42.9261H24.8646V37.0659C24.0493 38.9997 22.7529 40.5309 20.9753 41.65C19.1975 42.7691 17.0662 43.3286 14.5911 43.3286C11.9197 43.3286 9.53299 42.6611 7.42133 41.326C5.30967 39.9911 3.64981 38.0671 2.43193 35.5541C1.21405 33.0412 0.605103 30.1062 0.605103 26.7392C0.605103 23.3723 1.21405 20.3883 2.43193 17.8949C3.64981 15.4016 5.30967 13.4874 7.42133 12.1525C9.53299 10.8175 11.9197 10.15 14.5911 10.15C17.0662 10.15 19.1975 10.7095 20.9753 11.8285V11.8383ZM12.6464 20.9477C11.35 22.3416 10.7018 24.2754 10.7018 26.7491C10.7018 29.2227 11.35 31.1565 12.6464 32.5504C13.9429 33.9443 15.6519 34.6413 17.7832 34.6413C19.9145 34.6413 21.5842 33.9246 22.92 32.4916C24.2557 31.0583 24.9235 29.1443 24.9235 26.7491C24.9235 24.3539 24.2557 22.3907 22.92 20.9772C21.5842 19.5636 19.8752 18.8569 17.7832 18.8569C15.6912 18.8569 13.9429 19.5539 12.6464 20.9477Z" fill="#D5D5D5"/>
<path d="M63.0906 12.1525C65.6245 13.4875 67.6183 15.4115 69.0719 17.9244C70.5256 20.4374 71.2523 23.3822 71.2523 26.7394C71.2523 30.0965 70.5256 33.0414 69.0719 35.5542C67.6183 38.0671 65.6245 39.9912 63.0906 41.3261C60.5566 42.6611 57.6788 43.3286 54.4672 43.3286C51.2555 43.3286 48.3679 42.6611 45.8142 41.3261C43.2606 39.9912 41.257 38.0671 39.8034 35.5542C38.3497 33.0414 37.6229 30.1062 37.6229 26.7394C37.6229 23.3724 38.3497 20.4374 39.8034 17.9244C41.257 15.4115 43.2606 13.4875 45.8142 12.1525C48.3679 10.8175 51.2456 10.15 54.4672 10.15C57.6886 10.15 60.5566 10.8175 63.0906 12.1525ZM49.6839 20.8005C48.3875 22.1749 47.7393 24.1576 47.7393 26.7491C47.7393 29.3405 48.3875 31.3136 49.6839 32.6682C50.9804 34.0229 52.5715 34.7003 54.4769 34.7003C56.3824 34.7003 57.9637 34.0229 59.2404 32.6682C60.5173 31.3136 61.1556 29.3405 61.1556 26.7491C61.1556 24.1576 60.5173 22.1749 59.2404 20.8005C57.9637 19.4263 56.3725 18.7392 54.4769 18.7392C52.5814 18.7392 50.9804 19.4263 49.6839 20.8005Z" fill="#D5D5D5"/>
<path d="M99.2252 13.6053C102.054 15.9023 103.832 19.0729 104.568 23.0877H94.0591C93.7447 21.6938 93.1064 20.6141 92.1439 19.8386C91.1715 19.063 89.9536 18.6802 88.4902 18.6802C86.7517 18.6802 85.3178 19.3674 84.1981 20.7417C83.0785 22.1159 82.5186 24.1184 82.5186 26.7491C82.5186 29.3798 83.0785 31.3823 84.1981 32.7567C85.3178 34.1309 86.7517 34.818 88.4902 34.818C89.9634 34.818 91.1813 34.4352 92.1439 33.6596C93.1064 32.8842 93.7447 31.8044 94.0591 30.4105H104.568C103.832 34.4352 102.054 37.596 99.2252 39.8929C96.3966 42.1899 92.9001 43.3482 88.7161 43.3482C85.5436 43.3482 82.7249 42.6808 80.2695 41.3457C77.8141 40.0108 75.889 38.0868 74.4944 35.5738C73.0996 33.0609 72.4023 30.1259 72.4023 26.7589C72.4023 23.392 73.0899 20.408 74.4648 17.9146C75.8398 15.4213 77.7649 13.5071 80.2399 12.1721C82.7151 10.8371 85.5436 10.1696 88.7161 10.1696C92.8903 10.1696 96.3966 11.3181 99.2252 13.625V13.6053Z" fill="#D5D5D5"/>
<path d="M139.621 10.5622V42.9358H129.633V37.0756C128.7 38.9701 127.325 40.4818 125.478 41.6009C123.642 42.7199 121.501 43.2794 119.065 43.2794C115.352 43.2794 112.396 42.0425 110.215 39.5689C108.025 37.0952 106.935 33.6891 106.935 29.3601V10.5622H116.806V28.1429C116.806 30.3515 117.375 32.0596 118.515 33.2768C119.654 34.4939 121.196 35.1026 123.131 35.1026C125.066 35.1026 126.726 34.4645 127.894 33.1884C129.063 31.9123 129.633 30.0964 129.633 27.7405V10.5622H139.621Z" fill="#D5D5D5"/>
<path d="M162.486 34.4055V42.9357H158.017C154.226 42.9357 151.269 41.9935 149.168 40.1185C147.055 38.2436 146.005 35.1418 146.005 30.803V18.9058H141.654V10.5523H146.005V2.61101H155.935V10.5621H162.437V18.9157H155.935V30.9797C155.935 32.2558 156.199 33.149 156.721 33.6497C157.241 34.1503 158.125 34.4055 159.362 34.4055H162.495H162.486Z" fill="#D5D5D5"/>
<path d="M180.459 11.9463C182.415 10.788 184.535 10.2088 186.815 10.2088V20.82H183.967C181.334 20.82 179.291 21.3796 177.848 22.4987C176.393 23.6176 175.667 25.5122 175.667 28.1821V42.9163H165.737V10.5622H175.667V16.6581C176.905 14.685 178.505 13.1242 180.459 11.9561V11.9463Z" fill="#D5D5D5"/>
<path d="M212.438 12.1525C214.973 13.4875 216.967 15.4115 218.42 17.9244C219.874 20.4374 220.601 23.3822 220.601 26.7394C220.601 30.0965 219.874 33.0414 218.42 35.5542C216.967 38.0671 214.973 39.9912 212.438 41.3261C209.905 42.6611 207.027 43.3286 203.816 43.3286C200.604 43.3286 197.716 42.6611 195.162 41.3261C192.609 39.9912 190.605 38.0671 189.152 35.5542C187.698 33.0414 186.971 30.1062 186.971 26.7394C186.971 23.3724 187.698 20.4374 189.152 17.9244C190.605 15.4115 192.609 13.4875 195.162 12.1525C197.716 10.8175 200.593 10.15 203.816 10.15C207.037 10.15 209.905 10.8175 212.438 12.1525ZM199.032 20.8005C197.736 22.1749 197.088 24.1576 197.088 26.7491C197.088 29.3405 197.736 31.3136 199.032 32.6682C200.329 34.0229 201.92 34.7003 203.825 34.7003C205.731 34.7003 207.312 34.0229 208.588 32.6682C209.866 31.3136 210.505 29.3405 210.505 26.7491C210.505 24.1576 209.866 22.1749 208.588 20.8005C207.312 19.4263 205.721 18.7392 203.825 18.7392C201.929 18.7392 200.329 19.4263 199.032 20.8005Z" fill="#D5D5D5"/>
<path d="M288.271 28.5454H265.809C265.928 30.9799 266.546 32.7272 267.666 33.7972C268.785 34.8573 270.219 35.3874 271.957 35.3874C273.431 35.3874 274.649 35.0241 275.612 34.2879C276.573 33.5518 277.212 32.6094 277.527 31.4413H288.036C287.613 33.7285 286.68 35.7604 285.246 37.5567C283.812 39.3531 281.995 40.7666 279.785 41.7875C277.575 42.8083 275.12 43.3286 272.41 43.3286C269.236 43.3286 266.418 42.6611 263.963 41.3261C261.508 39.9912 259.582 38.0671 258.188 35.5542C256.793 33.0414 256.096 30.1062 256.096 26.7394C256.096 23.3724 256.784 20.3882 258.158 17.8949C259.533 15.4016 261.458 13.4875 263.933 12.1525C266.408 10.8175 269.236 10.15 272.41 10.15C275.582 10.15 278.449 10.8077 280.885 12.1231C283.322 13.4384 285.207 15.2839 286.542 17.6594C287.878 20.0348 288.547 22.7736 288.547 25.8657C288.547 26.6804 288.448 27.5639 288.252 28.5357L288.271 28.5454ZM276.81 19.5834C275.631 18.5232 274.167 17.9833 272.429 17.9833C270.691 17.9833 269.1 18.5232 267.901 19.603C266.703 20.6828 266.025 22.273 265.868 24.3638H278.518C278.557 22.2337 277.989 20.6435 276.81 19.5736V19.5834Z" fill="#D5D5D5"/>
<path d="M250.213 10.4837C247.483 17.8752 244.762 25.257 242.031 32.6485C241.953 32.8546 241.845 33.0706 241.678 33.1983C241.119 33.64 240.372 33.3062 240.264 32.5798C240.146 31.7847 240.038 30.9799 239.919 30.1848C239.459 26.9552 238.997 23.7256 238.535 20.4864C238.515 20.3195 238.457 20.2606 238.289 20.2409C234.283 19.6717 230.276 19.1023 226.267 18.5329C225.983 18.4937 225.738 18.4053 225.571 18.1697C225.207 17.6691 225.414 17.0212 226.023 16.7955C226.975 16.4421 227.918 16.0986 228.871 15.7451C233.634 13.9881 238.397 12.2408 243.162 10.4837H220.433L232.102 43.3481H244.595L256.263 10.4837H250.203H250.213Z" fill="#D5D5D5"/>
<path d="M181.864 57.5914C182.168 57.9644 182.316 58.3962 182.316 58.887C182.316 59.5644 182.089 60.1043 181.638 60.4969C181.186 60.8895 180.528 61.0956 179.664 61.0956H176.413V52.9384H179.604C180.42 52.9384 181.048 53.125 181.48 53.4881C181.912 53.8514 182.128 54.352 182.128 54.9999C182.128 55.5202 181.992 55.9324 181.726 56.2563C181.461 56.5803 181.098 56.7864 180.666 56.8944C181.156 56.9925 181.56 57.2281 181.864 57.6011V57.5914ZM177.729 56.4428H179.359C179.821 56.4428 180.174 56.3349 180.42 56.1189C180.666 55.9029 180.783 55.5986 180.783 55.2158C180.783 54.8329 180.666 54.5385 180.42 54.3225C180.174 54.1065 179.811 53.9987 179.32 53.9987H177.738V56.433L177.729 56.4428ZM180.558 59.6626C180.832 59.4367 180.97 59.1129 180.97 58.7103C180.97 58.3079 180.832 57.9839 180.558 57.7484C180.282 57.5227 179.889 57.4048 179.388 57.4048H177.738V60.0061H179.399C179.899 60.0061 180.282 59.8981 180.558 59.6626Z" fill="#D5D5D5"/>
<path d="M190.349 52.9384L187.639 58.1213V61.0859H186.312V58.1213L183.582 52.9384H185.104L186.981 56.7177L188.857 52.9384H190.358H190.349Z" fill="#D5D5D5"/>
<path fill-rule="evenodd" clip-rule="evenodd" d="M270.376 51.9666C270.778 52.104 271.132 51.9962 271.348 52.3593C271.535 52.6636 271.546 53.1544 271.546 53.5274V58.7399C271.546 60.2416 271.073 60.0454 270.346 60.2318L270.367 60.6539C270.71 60.6932 273.893 60.6539 273.99 60.6146C274.265 59.692 272.881 60.8012 272.723 59.1423C272.693 58.8086 272.615 56.6391 272.792 56.492C273.008 56.3447 273.833 56.4134 274.088 56.541C274.334 56.6588 274.463 57.1299 274.619 57.4146C274.982 58.0919 275.267 58.5827 275.679 59.1717C277.192 61.3902 279.658 63.0982 282.31 64.011C283.311 64.3546 286.239 64.9829 287.308 64.7277C287.485 64.1976 287.023 64.2859 286.572 64.2369C282.908 63.8638 279.687 62.038 277.419 59.3484C276.976 58.8281 275.631 57.0024 275.513 56.168C278.047 55.2649 278.214 52.8697 276.907 51.9077C275.66 50.9948 273.509 51.5053 272.114 51.5543C271.574 51.574 270.877 51.4366 270.376 51.5249V51.9569V51.9666ZM273.352 51.9962C276.201 51.6329 277.467 54.5679 275.385 55.5889C274.962 55.795 274.344 55.9324 273.794 55.9618C272.468 56.0306 272.714 56.0698 272.714 53.2427C272.714 52.4574 272.518 52.104 273.362 51.9962H273.352Z" fill="#D5D5D5"/>
<path fill-rule="evenodd" clip-rule="evenodd" d="M220.021 60.2416V60.644C220.345 60.6833 222.966 60.6833 223.418 60.644L223.439 60.2612C222.524 59.8489 222.023 60.6833 222.063 57.817L222.171 53.7139C222.368 53.8906 223.007 54.9999 223.202 55.3336C224.007 56.6882 224.99 58.3079 225.363 59.8588C225.451 60.2416 225.451 60.6638 225.786 60.7717C226.227 60.703 226.483 59.4072 226.68 58.9851C227.121 57.9742 228.958 54.4403 229.567 53.7728V58.7693C229.567 60.4478 228.83 60.0846 228.516 60.2416C228.34 60.3299 228.221 60.703 228.673 60.6932L231.884 60.6736L231.905 60.2809C231.296 59.9962 230.746 60.4379 230.726 58.7103V53.4979C230.726 52.9188 230.696 52.2709 231.246 52.104C231.581 51.996 231.884 52.1237 231.855 51.7605C231.836 51.4366 231.365 51.5838 230.597 51.5838C230.342 51.5838 229.841 51.4562 229.675 51.6035C229.439 51.7802 229.645 51.7605 229.616 52.0844C229.577 52.4378 228.25 54.7642 228.055 55.0882L226.669 57.5716C226.542 57.8072 226.345 58.249 226.14 58.4354C226.002 58.082 223.743 53.9789 223.37 53.2918C223.241 53.0563 222.554 51.6329 222.476 51.5543L220.63 51.574C220.403 51.7016 220.481 51.9372 220.717 52.0256C221.15 52.1924 221.435 52.2709 221.533 52.752C221.71 53.6255 221.453 57.4048 221.405 58.5631C221.327 60.5066 220.954 59.9472 220.049 60.2612" fill="#D5D5D5"/>
<path fill-rule="evenodd" clip-rule="evenodd" d="M210.986 55.4908C210.887 55.1079 210.936 54.0477 210.936 53.5961C210.936 52.8895 210.74 52.3398 211.526 52.2219C212.282 52.1139 214.57 52.1336 215.082 52.5262C215.376 52.752 215.307 52.8207 215.365 53.2526C215.415 53.6551 215.769 53.4686 215.847 53.2723C215.926 53.0857 215.847 52.6735 215.827 52.4478C215.808 52.1139 215.956 51.7901 215.935 51.6428C215.887 51.1913 214.737 51.4857 214.335 51.525C213.284 51.6035 208.717 51.525 208.667 51.5642C208.55 51.6428 208.559 51.8195 208.648 51.9176C208.756 52.0354 208.834 52.0059 209.011 52.0354C209.895 52.1925 209.777 53.1742 209.777 54.0771C209.777 54.8919 209.866 59.0343 209.669 59.6527C209.483 60.232 208.943 60.0945 208.382 60.2711L208.402 60.6737C209.276 60.8111 211.28 60.654 212.292 60.654C212.754 60.654 215.985 60.7521 216.014 60.7521C216.142 60.4773 216.093 59.7607 216.27 59.2602C216.417 58.8479 216.475 58.0036 215.866 58.2294C215.425 58.7988 216.064 59.3583 214.786 59.8C214.089 60.0454 213.136 60.0847 212.34 60.0553C211.124 60.016 210.926 59.9767 210.936 58.7792C210.936 58.3178 210.799 56.5607 211.034 56.3054C211.232 56.0797 213.078 56.1582 213.5 56.2073C214.669 56.3349 214.324 57.7681 214.864 57.2184C215.052 57.0024 214.845 56.0306 214.855 55.6478C214.875 55.0588 215.218 54.411 214.482 54.4305C214.197 55.1864 214.482 55.5692 213.303 55.579C212.832 55.579 211.31 55.6478 210.975 55.5202" fill="#D5D5D5"/>
<path fill-rule="evenodd" clip-rule="evenodd" d="M235.677 51.5447L235.638 51.957C235.992 52.0944 236.394 52.0355 236.61 52.3594C236.944 52.8502 236.817 55.3729 236.817 56.1386C236.817 56.9533 236.964 59.3878 236.571 59.8884C236.295 60.232 235.962 60.1043 235.578 60.2516V60.6443C236.079 60.7227 236.934 60.6246 237.493 60.6344C237.965 60.6344 239.125 60.7817 239.438 60.605C239.626 59.7902 238.495 60.5166 238.132 59.7019C237.886 59.1423 237.985 53.6846 237.994 52.8993C238.015 51.957 238.329 51.849 239.311 52.0158C241.835 52.4379 241.736 55.5104 239.654 55.6184C239.252 55.6379 239.045 55.5496 238.702 55.4417C237.543 55.0785 238.279 56.5313 240.293 56.1779C243.21 55.6675 243.327 51.8391 240.185 51.4073C239.477 51.3091 238.594 51.4268 237.916 51.5054C237.385 51.5741 235.902 51.4661 235.677 51.5447Z" fill="#D5D5D5"/>
<path fill-rule="evenodd" clip-rule="evenodd" d="M281.809 60.5852C282.152 61.1349 282.241 60.4085 282.998 60.5558C283.497 60.6539 283.97 60.7619 284.529 60.7521C286.533 60.7325 288.301 59.3091 287.82 57.3459C287.388 55.5889 285.237 55.4809 283.871 54.4404C283.154 53.9004 282.791 52.9483 283.685 52.2807C284.46 51.6918 285.57 51.8195 286.239 52.3887C286.729 52.8109 286.572 52.9581 286.749 53.5667C286.857 53.9495 287.564 53.8808 287.377 52.8991C287.172 51.8096 287.515 51.7605 287.427 51.4268C287.308 51.0145 286.975 51.3581 286.876 51.4169C286.641 51.5642 286.455 51.4759 286.17 51.4169C283.979 51.0244 281.848 51.7703 282.172 54.0084C282.437 55.844 284.726 56.1581 285.963 57.0711C286.621 57.5619 287.122 58.5042 286.405 59.4171C285.924 60.0257 284.814 60.3791 283.754 60.0257C282.339 59.5546 282.869 58.0135 282.624 57.7582C282.349 57.5324 282.083 57.8269 282.005 58.0625C281.828 58.5827 282.083 59.2993 282.005 59.8687C281.966 60.1631 281.769 60.3497 281.838 60.5852" fill="#D5D5D5"/>
<path fill-rule="evenodd" clip-rule="evenodd" d="M196.92 53.5961C197.578 53.0268 196.281 52.1727 199.032 52.1727C199.346 52.1727 199.494 52.212 199.72 52.2906L199.818 52.8403L199.798 58.7496C199.798 59.1521 199.768 59.6527 199.513 59.9079C199.189 60.2318 198.777 60.1238 198.364 60.2416V60.6637H202.381L202.4 60.2612C201.547 59.9472 200.966 60.3692 200.966 58.9361C200.966 57.9643 200.869 52.8403 201.046 52.3101C201.625 52.1237 202.961 52.104 203.384 52.477C203.687 52.7323 203.639 53.2132 203.747 53.6354C204.65 53.7924 204.14 52.6734 204.09 52.0943C204.071 51.8783 204.149 51.6035 204.08 51.4268C203.835 50.9458 203.55 51.4463 203.039 51.515C202.076 51.6525 198.865 51.5936 197.961 51.5249C197.412 51.4856 196.969 51.1028 196.753 51.2893C196.577 51.4463 196.704 51.8783 196.557 52.6734C196.488 53.017 196.361 53.8415 196.93 53.6255" fill="#D5D5D5"/>
<path fill-rule="evenodd" clip-rule="evenodd" d="M246.401 51.5642L246.371 51.9667C247.039 52.1531 247.511 51.9079 247.54 53.4784C247.569 54.8821 247.569 57.3557 247.54 58.7497C247.501 60.4969 246.911 59.9571 246.352 60.2712V60.6343C246.725 60.7325 250.673 60.6147 251.724 60.6343C252.117 60.6343 253.168 60.8012 253.374 60.6933C253.462 60.5263 253.482 59.6625 253.62 59.2502C253.777 58.7594 253.924 58.1313 253.216 58.1803C252.844 58.9264 253.414 59.7215 251.145 59.9865C250.644 60.0453 249.711 60.0846 249.249 59.9865C248.591 59.8392 248.69 59.2405 248.69 58.5828C248.69 57.3066 248.69 56.0305 248.69 54.7544C248.69 51.525 248.837 52.4084 249.839 51.9569C249.995 51.3385 249.681 51.5544 248.365 51.574C247.982 51.574 246.646 51.4857 246.401 51.574" fill="#D5D5D5"/>
<path fill-rule="evenodd" clip-rule="evenodd" d="M263.374 56.8354C263.63 57.0121 264.63 59.3877 264.375 59.8981C264.189 60.2711 263.727 60.1631 263.324 60.33V60.7227H267.067L267.087 60.33C266.575 60.0846 266.124 60.33 265.653 59.103C265.407 58.4552 265.171 57.8171 264.906 57.1594C264.71 56.6784 263.177 52.7716 263.079 52.3789C262.913 51.7605 263.462 51.8391 263.374 51.4661C263.276 51.0734 262.765 51.4268 262.46 51.5445C262.106 51.6722 261.497 51.7115 261.322 51.7802C260.8 51.9961 261.449 52.3299 261.508 52.5655C261.596 52.9385 260.515 54.9998 260.329 55.3925C259.956 56.1876 258.63 59.2503 258.139 59.8196C257.755 60.2613 257.727 60.065 257.205 60.2515C256.999 60.3203 256.97 60.546 257.079 60.6638C257.196 60.8012 258.709 60.6932 259.12 60.6932C259.661 60.7031 261.007 60.9288 260.633 60.3497C260.389 59.9668 258.837 60.5754 259.69 58.4256C260.005 57.6404 260.162 56.8257 260.673 56.7766C261.016 56.7471 263.158 56.7471 263.364 56.806M261.203 56.109C260.398 56.109 260.605 56.1582 261.223 54.7545C261.439 54.2637 261.734 53.5373 261.989 53.125C262.048 53.2034 263.207 55.7852 263.089 56.0993H261.203V56.109Z" fill="#D5D5D5"/>
</g>
</g>
<defs>
<clipPath id="clip0_201_707">
<rect width="289" height="64.7964" fill="white" transform="translate(0.601562)"/>
</clipPath>
</defs>
</svg>
