<svg width="262" height="61" viewBox="0 0 262 61" fill="none" xmlns="http://www.w3.org/2000/svg">
<path d="M99.7161 47.4213L108.815 17.4923H122.503L107.612 59.4537H91.7452L76.8568 17.4923H90.6168L99.7161 47.4213Z" fill="#D5D5D5"/>
<path d="M143.972 27.0402C145.6 23.7808 147.818 21.2752 150.626 19.5211C153.433 17.767 156.567 16.8899 160.025 16.8899C162.781 16.8899 165.299 17.4674 167.582 18.6199C169.863 19.7724 171.656 21.326 172.958 23.2831V3.804H185.82V59.453H172.958V53.4367C171.755 55.4422 170.037 57.0465 167.807 58.2497C165.577 59.453 162.982 60.0546 160.025 60.0546C156.565 60.0546 153.431 59.1655 150.626 57.3847C147.818 55.604 145.598 53.0743 143.972 49.7883C142.341 46.5048 141.527 42.709 141.527 38.3961C141.527 34.0857 142.341 30.302 143.972 27.0402ZM170.291 30.8771C168.51 29.0239 166.343 28.0936 163.787 28.0936C161.23 28.0936 159.061 29.0094 157.282 30.8384C155.502 32.6699 154.612 35.1875 154.612 38.3961C154.612 41.6048 155.502 44.149 157.282 46.0288C159.061 47.9086 161.23 48.8485 163.787 48.8485C166.343 48.8485 168.51 47.9231 170.291 46.0675C172.069 44.2143 172.961 41.6821 172.961 38.4711C172.958 35.2648 172.069 32.7327 170.291 30.8771Z" fill="#D5D5D5"/>
<path d="M199.393 57.4234C196.11 55.6693 193.527 53.1613 191.647 49.9019C189.767 46.6425 188.827 42.8323 188.827 38.4711C188.827 34.1607 189.779 30.3625 191.686 27.0789C193.59 23.7953 196.197 21.2777 199.507 19.5212C202.814 17.767 206.526 16.8875 210.638 16.8875C214.748 16.8875 218.459 17.767 221.767 19.5212C225.077 21.2753 227.682 23.7953 229.588 27.0789C231.492 30.3625 232.444 34.1607 232.444 38.4711C232.444 42.7839 231.48 46.5821 229.549 49.8633C227.619 53.1468 224.988 55.6669 221.653 57.421C218.319 59.1752 214.596 60.0522 210.486 60.0522C206.376 60.0546 202.677 59.1776 199.393 57.4234ZM216.765 46.2173C218.495 44.4124 219.36 41.832 219.36 38.4711C219.36 35.1126 218.519 32.5298 216.84 30.7249C215.159 28.92 213.093 28.0188 210.636 28.0188C208.128 28.0188 206.047 28.9079 204.395 30.6886C202.74 32.4693 201.913 35.0643 201.913 38.4711C201.913 41.8295 202.727 44.4124 204.358 46.2173C205.987 48.0222 208.031 48.9234 210.488 48.9234C212.941 48.9234 215.035 48.0222 216.765 46.2173Z" fill="#D5D5D5"/>
<path d="M254.023 19.033C256.278 17.7041 258.786 17.0397 261.543 17.0397V30.6499H258.008C254.799 30.6499 252.393 31.3409 250.788 32.7181C249.184 34.0978 248.382 36.5163 248.382 39.9763V59.4529H235.523V17.4915H248.382V24.4863C249.887 22.1788 251.767 20.3619 254.023 19.033Z" fill="#D5D5D5"/>
<path d="M138.518 17.4921H125.659V59.4535H138.518V17.4921Z" fill="#D5D5D5"/>
<path d="M139.116 7.67941C139.116 3.85705 136.019 0.761948 132.199 0.761948C128.377 0.761948 125.281 3.85946 125.281 7.67941C125.281 11.5018 128.379 14.5969 132.199 14.5969C136.019 14.5993 139.116 11.5018 139.116 7.67941Z" fill="#D5D5D5"/>
<path d="M62.8244 17.4919L62.8099 38.9909H57.5112C56.4433 38.9909 55.4696 39.595 54.9936 40.5469L45.8219 56.3003C44.6718 58.6005 42.3208 60.055 39.7476 60.055H22.8273V38.9378H28.1259C29.1914 38.9378 30.1676 38.3337 30.6435 37.3818L39.8298 21.2442C40.9799 18.944 43.3332 17.4895 45.904 17.4895H62.8244V17.4919Z" fill="#D5D5D5"/>
<path d="M3.98731 17.4921H22.8213V38.9911H0.599854V20.8796C0.599854 19.007 2.1172 17.4921 3.98731 17.4921Z" fill="#D5D5D5"/>
</svg>
