<svg width="53" height="101" viewBox="0 0 53 101" fill="none" xmlns="http://www.w3.org/2000/svg">
<path d="M34.842 94.9139C35.4188 94.4669 35.8675 94.0837 36.252 93.7644C35.8675 93.3813 35.4829 92.8065 35.0343 92.5511C23.1131 87.1868 15.7424 77.6077 10.6791 66.0489C8.56403 61.1955 6.70534 56.3421 2.47522 52.8297C0.48835 51.1693 0.424257 49.6367 2.47522 47.9763C7.08989 44.2724 8.94859 38.8442 11.32 33.7354C14.8451 26.0082 19.3316 18.9197 26.4459 13.8747C29.2659 11.9589 32.1501 10.1069 34.9702 8.25495C35.4188 7.93564 35.8034 7.6802 36.188 7.3609C35.8034 7.10545 35.4188 6.91387 35.0343 6.65843C33.9447 6.14754 32.8551 5.63666 31.8297 5.06191C31.3169 4.67875 30.9324 4.104 30.4837 3.59312C30.9965 3.27381 31.4451 2.76293 31.9578 2.69907C38.0466 1.74116 44.1354 0.783245 50.2883 0.0169166C51.1215 -0.0469441 52.9802 0.33622 52.0188 2.50748C49.391 8.31881 45.5455 13.1084 40.8667 17.387C40.354 17.8341 39.713 18.0895 39.1362 18.4088C39.008 17.8341 38.8798 17.1954 38.8158 16.6207C38.6876 15.088 38.5594 13.6192 38.3671 12.0866C37.3416 13.1722 36.188 14.1301 35.2907 15.2796C32.2142 19.3667 28.625 23.1984 27.8559 28.4988C27.5354 30.7978 27.5354 33.1606 27.2791 35.5235C26.9586 38.3333 27.1509 41.4625 25.869 43.8254C23.3694 48.551 22.8567 53.0213 25.4204 57.6831C27.1509 60.8123 27.2791 63.9415 26.8304 67.5177C26.0613 73.1374 28.5609 78.1186 32.2142 82.4611C33.8165 84.3769 35.3548 86.4204 36.9571 88.464C37.2134 88.7833 37.598 89.0387 37.8544 89.358C38.1748 88.9749 38.6235 88.5917 38.8158 88.1447C38.9439 87.8254 38.8158 87.3145 38.8158 86.8675C38.9439 85.5903 39.1362 84.2492 39.2644 82.972C40.4181 83.7383 41.8922 84.2492 42.7254 85.3348C45.8019 89.4219 48.7501 93.7006 51.6343 97.9154C53.1725 100.15 52.0829 101.045 49.8397 100.789C44.3277 100.278 38.8158 99.6396 33.3679 98.8094C32.3424 98.6817 31.4451 97.5961 30.4837 97.0213C31.381 96.4466 32.2783 95.808 33.1756 95.3609C33.6242 95.1055 34.2011 95.1694 34.842 94.9139Z" fill="#383838"/>
</svg>
