<svg width="24" height="25" viewBox="0 0 24 25" fill="none" xmlns="http://www.w3.org/2000/svg">
<mask id="path-1-inside-1_211_340" fill="white">
<path d="M0.601562 8C0.601562 4.27208 3.62364 1.25 7.35156 1.25H16.3516C20.0795 1.25 23.1016 4.27208 23.1016 8V17C23.1016 20.7279 20.0795 23.75 16.3516 23.75H7.35156C3.62364 23.75 0.601562 20.7279 0.601562 17V8Z"/>
</mask>
<path d="M7.35156 2.25H16.3516V0.25H7.35156V2.25ZM22.1016 8V17H24.1016V8H22.1016ZM16.3516 22.75H7.35156V24.75H16.3516V22.75ZM1.60156 17V8H-0.398438V17H1.60156ZM7.35156 22.75C4.17593 22.75 1.60156 20.1756 1.60156 17H-0.398438C-0.398438 21.2802 3.07136 24.75 7.35156 24.75V22.75ZM22.1016 17C22.1016 20.1756 19.5272 22.75 16.3516 22.75V24.75C20.6318 24.75 24.1016 21.2802 24.1016 17H22.1016ZM16.3516 2.25C19.5272 2.25 22.1016 4.82436 22.1016 8H24.1016C24.1016 3.71979 20.6318 0.25 16.3516 0.25V2.25ZM7.35156 0.25C3.07136 0.25 -0.398438 3.71979 -0.398438 8H1.60156C1.60156 4.82436 4.17593 2.25 7.35156 2.25V0.25Z" fill="#45454B" mask="url(#path-1-inside-1_211_340)"/>
<path d="M8.74547 17.6899C7.27607 17.6899 6.32807 16.7577 6.32807 15.3041C6.32807 13.7715 7.24447 12.8709 9.04567 12.8709H9.97787V11.1329H9.04567C7.24447 11.1329 6.32807 10.2323 6.32807 8.69974C6.32807 7.24614 7.27607 6.31394 8.74547 6.31394C10.5151 6.31394 11.0839 7.41994 11.0839 8.74714V10.0585H12.8219V8.74714C12.8219 7.41994 13.3907 6.31394 15.1603 6.31394C16.6297 6.31394 17.5777 7.24614 17.5777 8.69974C17.5777 10.2323 16.6613 11.1329 14.8601 11.1329H13.9279V12.8709H14.8601C16.6613 12.8709 17.5777 13.7715 17.5777 15.3041C17.5777 16.7577 16.6297 17.6899 15.1603 17.6899C13.3907 17.6899 12.8219 16.5839 12.8219 15.2567V13.9453H11.0839V15.2567C11.0839 16.5839 10.5151 17.6899 8.74547 17.6899ZM13.9279 8.71554V10.0585H14.8601C15.9819 10.0585 16.4559 9.60034 16.4559 8.69974C16.4559 7.76754 15.9029 7.40414 15.1603 7.40414C14.3387 7.40414 13.9279 7.90974 13.9279 8.71554ZM9.04567 10.0585H9.97787V8.71554C9.97787 7.90974 9.56707 7.40414 8.74547 7.40414C8.00287 7.40414 7.44987 7.76754 7.44987 8.69974C7.44987 9.60034 7.92387 10.0585 9.04567 10.0585ZM11.0839 12.8709H12.8219V11.1329H11.0839V12.8709ZM8.74547 16.5997C9.56707 16.5997 9.97787 16.0941 9.97787 15.2883V13.9453H9.04567C7.92387 13.9453 7.44987 14.4035 7.44987 15.3041C7.44987 16.2363 8.00287 16.5997 8.74547 16.5997ZM13.9279 15.2883C13.9279 16.0941 14.3387 16.5997 15.1603 16.5997C15.9029 16.5997 16.4559 16.2363 16.4559 15.3041C16.4559 14.4035 15.9819 13.9453 14.8601 13.9453H13.9279V15.2883Z" fill="#828288"/>
</svg>
