<svg width="24" height="25" viewBox="0 0 24 25" fill="none" xmlns="http://www.w3.org/2000/svg">
<mask id="path-1-inside-1_211_343" fill="white">
<path d="M0.601562 8C0.601562 4.27208 3.62364 1.25 7.35156 1.25H16.3516C20.0795 1.25 23.1016 4.27208 23.1016 8V17C23.1016 20.7279 20.0795 23.75 16.3516 23.75H7.35156C3.62364 23.75 0.601562 20.7279 0.601562 17V8Z"/>
</mask>
<path d="M7.35156 2.25H16.3516V0.25H7.35156V2.25ZM22.1016 8V17H24.1016V8H22.1016ZM16.3516 22.75H7.35156V24.75H16.3516V22.75ZM1.60156 17V8H-0.398438V17H1.60156ZM7.35156 22.75C4.17593 22.75 1.60156 20.1756 1.60156 17H-0.398438C-0.398438 21.2802 3.07136 24.75 7.35156 24.75V22.75ZM22.1016 17C22.1016 20.1756 19.5272 22.75 16.3516 22.75V24.75C20.6318 24.75 24.1016 21.2802 24.1016 17H22.1016ZM16.3516 2.25C19.5272 2.25 22.1016 4.82436 22.1016 8H24.1016C24.1016 3.71979 20.6318 0.25 16.3516 0.25V2.25ZM7.35156 0.25C3.07136 0.25 -0.398438 3.71979 -0.398438 8H1.60156C1.60156 4.82436 4.17593 2.25 7.35156 2.25V0.25Z" fill="#45454B" mask="url(#path-1-inside-1_211_343)"/>
<path d="M9.78393 6.45713V17.6899H8.29496V6.45713H9.78393ZM16.5653 6.45713L11.8978 11.6955L9.27475 14.4188L9.02787 12.8296L11.0029 10.654L14.7754 6.45713H16.5653ZM15.1303 17.6899L10.972 12.2124L11.8592 11.032L16.9047 17.6899H15.1303Z" fill="#828288"/>
</svg>
