<svg width="51" height="23" viewBox="0 0 51 23" fill="none" xmlns="http://www.w3.org/2000/svg">
<g clip-path="url(#clip0_212_1933)">
<path d="M40.0313 0.689453H11.5764C5.63003 0.689453 0.80957 5.50991 0.80957 11.4563C0.80957 17.4026 5.63003 22.2231 11.5764 22.2231H40.0313C45.9777 22.2231 50.7981 17.4026 50.7981 11.4563C50.7981 5.50991 45.9777 0.689453 40.0313 0.689453Z" fill="#007BFF"/>
<path d="M20.06 15.6704V14.2563H15.9273V7.99707H14.2611V15.6704H20.06ZM22.7566 15.6704V7.99707H21.0904V15.6704H22.7566ZM28.8185 15.6704L31.4604 7.99707H29.6297L28.3362 12.1516C28.0777 12.8996 27.9407 13.6842 27.9306 14.4756H27.3387C27.3327 13.6857 27.2033 12.9015 26.955 12.1516L25.6615 7.99707H23.8089L26.4617 15.6704H28.8185ZM38.3225 15.6704V14.2892H34.1899V12.4038H37.314V11.0445H34.1899V9.37827H38.3225V7.99707H32.5237V15.6704H38.3225Z" fill="black"/>
</g>
<defs>
<clipPath id="clip0_212_1933">
<rect width="49.9886" height="21.5336" fill="white" transform="translate(0.80957 0.689453)"/>
</clipPath>
</defs>
</svg>
