<svg width="111" height="25" viewBox="0 0 111 25" fill="none" xmlns="http://www.w3.org/2000/svg">
<g clip-path="url(#clip0_212_1939)">
<path d="M92.6094 16.8168C92.6094 13.397 92.6241 10.0358 92.6094 6.68938C92.5947 5.29503 92.4179 3.91535 91.7256 2.6531C91.5488 2.31552 91.6519 2.27148 92.0054 2.27148C95.2462 2.28616 98.487 2.30084 101.713 2.27148C102.98 2.27148 104.202 2.43294 105.381 2.87326C107.782 3.79793 109.476 5.47116 109.962 8.01035C110.522 10.9458 109.181 13.8373 106 15.0702C104.497 15.6426 103.039 15.8187 101.492 15.3637C101.359 15.3197 101.168 15.4518 101.006 15.4958C101.109 15.6132 101.183 15.804 101.315 15.8628C102.332 16.2444 103.348 16.7434 104.394 16.9195C105.676 17.1544 106.427 17.9763 107.193 18.8423C108.18 19.9577 109.123 21.1173 110.08 22.2621C110.139 22.3355 110.183 22.4236 110.242 22.5116C110.139 22.5703 110.036 22.6877 109.947 22.6731C109.52 22.6437 109.108 22.5556 108.681 22.541C108.018 22.5263 107.34 22.4529 106.692 22.5556C105.572 22.7465 104.939 22.1887 104.306 21.3815C102.523 19.0918 100.682 16.8608 98.8552 14.6005C98.7816 14.4978 98.7226 14.3657 98.6637 14.2482C98.8258 14.2189 99.0025 14.1308 99.1351 14.1895C102.14 15.1729 104.497 13.6465 105.734 11.709C106.618 10.3147 106.736 8.72954 106.117 7.17374C105.278 5.03084 103.702 3.65116 101.389 3.34293C99.8569 3.13745 98.2955 3.21084 96.7487 3.16681C96.2626 3.15213 96.2921 3.47503 96.2921 3.79793C96.2921 5.33906 96.2921 6.88019 96.2921 8.42131C96.2921 12.8245 96.2921 17.2278 96.3068 21.631C96.3068 22.3061 96.1448 22.629 95.3935 22.5556C94.7159 22.4823 94.0088 22.4969 93.3312 22.5556C92.7272 22.5997 92.6094 22.2915 92.6094 21.8071C92.6241 20.1632 92.6094 18.534 92.6094 16.8168Z" fill="white"/>
<path d="M87.4537 11.3859C87.4537 12.7509 87.3948 14.0571 87.4684 15.3488C87.6599 18.475 85.5387 21.0436 82.5631 21.9683C80.4124 22.6434 78.2175 22.8489 76.0079 22.6434C74.1077 22.482 72.178 22.115 70.5576 20.9262C69.1287 19.8841 68.0534 18.5778 67.8766 16.7578C67.7587 15.4368 67.744 14.1159 67.7293 12.7949C67.6998 10.8134 67.7145 8.83199 67.7145 6.85054C67.7293 5.36812 67.4936 3.92974 66.8307 2.5941C66.6981 2.31522 66.7129 2.27119 67.0222 2.27119C68.2007 2.30055 69.3791 2.30055 70.5576 2.27119C71.191 2.25652 71.412 2.50603 71.412 3.12248C71.3972 7.42296 71.3972 11.7381 71.3972 16.0386C71.412 18.7686 73.3269 20.7647 75.787 21.3371C77.7167 21.7921 79.6317 21.6454 81.3404 20.4858C82.7251 19.5465 83.7268 18.3136 83.7563 16.5963C83.8594 12.0904 83.8889 7.58441 83.9036 3.09313C83.9183 2.44732 84.0656 2.19781 84.7138 2.27119C85.4945 2.35926 86.2605 2.38861 87.0412 2.43264C87.5421 2.44732 87.4537 2.7849 87.4537 3.09313C87.4537 5.8378 87.4537 8.5678 87.4537 11.3859Z" fill="white"/>
<path d="M28.5013 10.8284C27.4702 9.31663 26.4832 7.8489 25.4963 6.36648C25.2311 5.95551 25.0249 5.48583 24.7597 5.06019C24.6566 4.89874 24.4946 4.78132 24.362 4.63455C24.3325 4.81067 24.2736 4.9868 24.2736 5.16293C24.3178 8.20115 24.3767 11.2247 24.4062 14.2629C24.4357 16.7581 24.4062 19.2532 24.4062 21.7484C24.4062 22.1887 24.4062 22.5557 23.758 22.5557C23.1688 22.5557 23.0804 22.3355 23.0804 21.8218C23.0952 16.714 23.0804 11.6063 23.0804 6.49858C23.0804 5.13358 22.8006 3.84197 22.1966 2.60906C22.1229 2.43294 21.9756 2.27148 22.3734 2.27148C23.9643 2.30084 25.5699 2.24213 27.1608 2.31552C27.4849 2.33019 27.8679 2.74116 28.0889 3.06406C30.5194 6.60132 32.95 10.1532 35.3511 13.7052C36.3528 15.1729 37.2956 16.67 38.2531 18.1524C38.3267 18.2552 38.4004 18.3432 38.474 18.4313C38.5477 18.3139 38.695 18.1965 38.695 18.079C38.6655 17.6094 38.5624 17.1397 38.5624 16.67C38.5477 12.1787 38.5624 7.67277 38.5329 3.18148C38.5329 2.68245 38.695 2.31552 39.1222 2.31552C39.5936 2.31552 39.8882 2.62374 39.8882 3.21084C39.8734 9.4047 39.8734 15.5839 39.8882 21.7777C39.8882 22.3061 39.7409 22.5997 39.1222 22.5557C38.4446 22.4969 37.7375 22.585 37.0599 22.5116C36.7211 22.4823 36.2791 22.3061 36.1024 22.0419C33.6129 18.4313 31.1529 14.806 28.6928 11.166C28.6339 11.0779 28.5897 10.9752 28.5013 10.8284Z" fill="white"/>
<path d="M17.9249 18.4311C18.4552 19.752 18.9708 20.9996 19.4863 22.2619C19.5011 22.3206 19.3685 22.5261 19.2948 22.5261C18.1459 22.5408 16.9969 22.5701 15.8331 22.5114C15.6416 22.5114 15.3765 22.2178 15.2881 21.9977C14.8609 20.9262 14.4779 19.8401 14.0655 18.7687C13.8592 18.2256 13.5499 17.9467 12.8723 17.9614C10.5301 18.0201 8.20263 17.9908 5.87518 17.9908C4.13696 17.9761 2.92904 18.7833 2.14831 20.2951C1.86843 20.8382 1.63274 21.3959 1.36759 21.939C1.2792 22.1151 1.19082 22.3353 1.04351 22.3793C0.763627 22.482 0.454282 22.482 0.159668 22.5261C0.233321 22.3206 0.292244 22.1151 0.365898 21.9096C1.45597 19.0916 2.56077 16.2735 3.63611 13.4408C4.43157 11.3713 5.2123 9.30174 5.99303 7.23222C6.5086 5.8819 6.67064 4.48755 6.58225 3.06384C6.53806 2.49142 6.75902 2.27126 7.33352 2.28594C8.51198 2.30062 9.69043 2.28594 10.8689 2.28594C11.3403 2.27126 11.6643 2.46207 11.8411 2.90239C12.7397 5.16271 13.653 7.43771 14.5368 9.7127C15.347 11.7675 16.1425 13.8371 16.9379 15.9066C17.262 16.7285 17.6008 17.5358 17.9249 18.4311ZM11.8853 13.0738C11.3697 11.7235 10.8394 10.3879 10.3386 9.02287C9.80828 7.55513 9.30743 6.07271 8.79186 4.60497C8.74767 4.4582 8.64455 4.34078 8.5709 4.194C8.48251 4.34078 8.36467 4.4582 8.32048 4.60497C8.23209 4.83981 8.24682 5.11868 8.14371 5.33884C7.24514 7.58448 6.3171 9.81545 5.4038 12.0464C4.75565 13.6169 4.13696 15.2021 3.45935 16.7432C3.32677 17.0661 3.28258 17.1101 3.63611 17.1101C6.77375 17.1101 9.91139 17.1101 13.049 17.1101C13.3436 17.1101 13.4026 17.1101 13.2553 16.7579C12.7544 15.5983 12.342 14.3948 11.8853 13.0738Z" fill="white"/>
<path d="M59.8776 22.6431C60.0102 22.5404 60.1133 22.4523 60.2017 22.3789C60.1133 22.2909 60.0249 22.1588 59.9218 22.1001C57.1819 20.8672 55.4879 18.6656 54.3241 16.009C53.838 14.8935 53.4108 13.778 52.4386 12.9707C51.982 12.5891 51.9672 12.2369 52.4386 11.8553C53.4992 11.004 53.9264 9.75639 54.4715 8.5822C55.2816 6.80623 56.3128 5.17704 57.9479 4.01752C58.596 3.5772 59.2589 3.15156 59.9071 2.72591C60.0102 2.65253 60.0986 2.59382 60.187 2.52043C60.0986 2.46172 60.0102 2.41769 59.9218 2.35898C59.6714 2.24156 59.421 2.12414 59.1853 1.99204C59.0674 1.90398 58.979 1.77188 58.8759 1.65446C58.9938 1.58108 59.0969 1.46366 59.2147 1.44898C60.6142 1.22882 62.0136 1.00866 63.4277 0.83253C63.6192 0.817852 64.0464 0.905917 63.8254 1.40495C63.2215 2.74059 62.3376 3.8414 61.2623 4.82478C61.1445 4.92752 60.9972 4.98623 60.8646 5.05962C60.8351 4.92752 60.8057 4.78075 60.7909 4.64865C60.7615 4.2964 60.732 3.95882 60.6878 3.60656C60.4521 3.85607 60.187 4.07623 59.9807 4.34043C59.2737 5.27978 58.4487 6.16042 58.272 7.37865C58.1983 7.90703 58.1983 8.4501 58.1394 8.99316C58.0657 9.63897 58.1099 10.3582 57.8153 10.9012C57.2408 11.9874 57.123 13.0148 57.7122 14.0862C58.1099 14.8054 58.1394 15.5246 58.0363 16.3465C57.8595 17.6381 58.434 18.783 59.2737 19.781C59.6419 20.2214 59.9955 20.691 60.3637 21.1607C60.4227 21.2341 60.511 21.2928 60.57 21.3662C60.6436 21.2781 60.7467 21.1901 60.7909 21.0873C60.8204 21.014 60.7909 20.8965 60.7909 20.7938C60.8204 20.5002 60.8646 20.192 60.894 19.8985C61.1592 20.0746 61.498 20.192 61.6895 20.4415C62.3966 21.3809 63.0742 22.3643 63.7371 23.333C64.0906 23.8467 63.8402 24.0522 63.3246 23.9935C62.0578 23.876 60.7909 23.7293 59.5388 23.5385C59.3031 23.5091 59.0969 23.2596 58.8759 23.1275C59.0822 22.9954 59.2884 22.8486 59.4946 22.7459C59.5977 22.6872 59.7303 22.7018 59.8776 22.6431Z" fill="white"/>
<path d="M49.1538 2.43288C49.3011 2.63836 49.4484 2.84384 49.4484 3.06401C49.4631 8.68545 49.4484 14.3069 49.4484 19.9283C49.4484 20.6475 49.4337 21.3814 49.4631 22.1153C49.4778 22.4822 49.3747 22.5556 49.0212 22.5556C48.1963 22.5262 47.3566 22.5116 46.517 22.5556C46.0603 22.5703 45.9425 22.3501 45.913 21.9832C45.913 21.8364 45.913 21.6896 45.913 21.5428C45.913 16.758 45.913 11.9732 45.913 7.17368C45.9277 5.57384 45.7657 4.01804 44.8966 2.60901C44.8524 2.53562 44.8966 2.30078 44.8966 2.30078C46.2518 2.33014 47.5923 2.38885 48.9328 2.43288C48.9917 2.43288 49.0359 2.43288 49.1538 2.43288Z" fill="white"/>
</g>
<defs>
<clipPath id="clip0_212_1939">
<rect width="110.361" height="23.2339" fill="white" transform="translate(0.159668 0.818359)"/>
</clipPath>
</defs>
</svg>
