<svg width="29" height="56" viewBox="0 0 29 56" fill="none" xmlns="http://www.w3.org/2000/svg">
<path d="M19.1447 52.6332C19.4646 52.3853 19.7134 52.1728 19.9267 51.9957C19.7134 51.7832 19.5002 51.4644 19.2513 51.3227C12.6396 48.3476 8.55171 43.0349 5.7435 36.6241C4.57045 33.9323 3.53959 31.2406 1.19349 29.2926C0.0915319 28.3717 0.0559849 27.5216 1.19349 26.6008C3.75287 24.5465 4.78373 21.5359 6.09897 18.7025C8.05405 14.4169 10.5423 10.4854 14.488 7.68738C16.0521 6.62483 17.6517 5.5977 19.2158 4.57057C19.4646 4.39348 19.6779 4.2518 19.8912 4.07471C19.6779 3.93304 19.4646 3.82678 19.2513 3.68511C18.647 3.40176 18.0427 3.11842 17.474 2.79965C17.1896 2.58714 16.9763 2.26838 16.7275 1.98503C17.0119 1.80794 17.2607 1.52459 17.5451 1.48918C20.922 0.957901 24.299 0.426626 27.7115 0.0016067C28.1736 -0.0338116 29.2045 0.178698 28.6713 1.38292C27.2139 4.60599 25.081 7.26236 22.4861 9.63539C22.2017 9.88332 21.8463 10.025 21.5263 10.2021C21.4553 9.88332 21.3842 9.52913 21.3486 9.21037C21.2775 8.36033 21.2064 7.54571 21.0998 6.69567C20.531 7.29778 19.8912 7.82905 19.3935 8.46658C17.6873 10.7334 15.6966 12.8585 15.2701 15.7982C15.0923 17.0732 15.0923 18.3837 14.9502 19.6942C14.7724 21.2526 14.8791 22.9881 14.1681 24.2986C12.7818 26.9195 12.4974 29.3988 13.9193 31.9843C14.8791 33.7198 14.9502 35.4553 14.7013 37.4388C14.2748 40.5556 15.6611 43.3182 17.6873 45.7266C18.5759 46.7892 19.4291 47.9226 20.3178 49.056C20.4599 49.2331 20.6732 49.3747 20.8154 49.5518C20.9931 49.3393 21.242 49.1268 21.3486 48.8789C21.4197 48.7018 21.3486 48.4184 21.3486 48.1705C21.4197 47.4621 21.5263 46.7184 21.5974 46.01C22.2373 46.435 23.0549 46.7184 23.517 47.3205C25.2232 49.5872 26.8584 51.9603 28.458 54.2979C29.3111 55.5375 28.7068 56.0334 27.4627 55.8917C24.4056 55.6084 21.3486 55.2542 18.3271 54.7937C17.7584 54.7229 17.2607 54.1208 16.7275 53.802C17.2252 53.4833 17.7228 53.1291 18.2205 52.8811C18.4693 52.7395 18.7892 52.7749 19.1447 52.6332Z" fill="white"/>
</svg>
