<svg width="30" height="56" viewBox="0 0 30 56" fill="none" xmlns="http://www.w3.org/2000/svg">
<path d="M19.6432 53.0735L19.5777 53.0996C19.358 53.1872 19.1496 53.2224 19.0043 53.247C18.9942 53.2487 18.9843 53.2504 18.9747 53.252C18.8085 53.2804 18.7524 53.2967 18.7158 53.3176L18.7038 53.3245L18.6914 53.3306C18.4135 53.469 18.1403 53.6403 17.8529 53.8278C17.8573 53.8314 17.8618 53.835 17.8662 53.8385C17.9384 53.8963 18.0054 53.9498 18.0644 53.9947C18.3212 54.1899 18.4955 54.2819 18.6368 54.2995L18.6504 54.3012L18.6504 54.3014C21.6601 54.76 24.7072 55.1131 27.7567 55.3958L27.7672 55.3968L27.7672 55.3969C28.0461 55.4286 28.2596 55.4207 28.408 55.3894C28.5595 55.3575 28.5965 55.3124 28.5977 55.3108C28.5984 55.31 28.5986 55.3095 28.5989 55.3088C28.5991 55.3083 28.5997 55.307 28.6003 55.3046C28.6008 55.303 28.6013 55.3008 28.6018 55.298C28.6043 55.284 28.6071 55.2503 28.5951 55.1902C28.5697 55.0637 28.4874 54.8642 28.294 54.5833L28.2933 54.5822C26.6939 52.245 25.065 49.8812 23.3669 47.6251C23.1968 47.4042 22.9466 47.2229 22.6202 47.0329C22.521 46.9751 22.406 46.9122 22.2845 46.8457C22.2752 46.8406 22.2659 46.8355 22.2565 46.8304C22.2436 46.9373 22.2306 47.0439 22.2176 47.1501L22.2172 47.1529C22.1738 47.5076 22.1312 47.8561 22.0968 48.1954C22.0978 48.2479 22.1023 48.295 22.108 48.3555C22.1123 48.3998 22.1172 48.4513 22.1219 48.5175C22.1306 48.6391 22.1435 48.8604 22.0605 49.0671L22.056 49.0785L22.0558 49.0784C21.9702 49.2775 21.8379 49.4409 21.7314 49.5616C21.6769 49.6232 21.6196 49.684 21.5725 49.7346C21.5227 49.7881 21.4819 49.8326 21.4469 49.8746L21.0554 50.3426L20.6734 49.8668C20.6326 49.8159 20.5759 49.7634 20.4807 49.6781L20.4704 49.6689C20.3883 49.5953 20.273 49.492 20.1758 49.371L20.1722 49.3665L20.1722 49.3664C19.9176 49.0417 19.6675 48.7191 19.4196 48.3994C18.7943 47.5928 18.1835 46.8049 17.552 46.0497C17.5519 46.0496 17.5518 46.0495 17.5517 46.0494L17.9352 45.7286C15.909 43.3202 14.5227 40.5575 14.9493 37.4407L19.6432 53.0735ZM19.6432 53.0735L19.6989 53.0304C19.9652 52.824 20.1855 52.6399 20.3702 52.4856C20.4134 52.4495 20.4546 52.4151 20.4941 52.3823L20.9168 52.0313L20.5276 51.6434C20.4697 51.5858 20.4208 51.5289 20.3602 51.4584C20.3211 51.4129 20.2771 51.3617 20.2227 51.3009C20.1076 51.1726 19.9466 51.004 19.7467 50.8902L19.7261 50.8785L19.7044 50.8687C13.2414 47.9605 9.22634 42.7646 6.44961 36.4259C6.35461 36.2079 6.26017 35.9888 6.16545 35.7691C5.10739 33.3143 4.01634 30.7829 1.76143 28.9103C1.24792 28.4811 1.1038 28.1641 1.10159 27.9436C1.09944 27.7298 1.23014 27.4173 1.75527 26.9919C4.01621 25.1768 5.14252 22.6354 6.21138 20.2237C6.40745 19.7813 6.60158 19.3433 6.80043 18.9149L6.8018 18.912C8.73935 14.6648 11.1805 10.8251 15.0211 8.10009C16.1363 7.34259 17.2676 6.60438 18.3957 5.86833C18.8441 5.57572 19.292 5.28346 19.7382 4.99046L19.746 4.98532L19.7536 4.97989C19.8042 4.94389 19.8551 4.90816 19.9062 4.87228C20.0902 4.74316 20.2767 4.61228 20.4585 4.46135L20.9756 4.03203L20.4158 3.66018C20.2966 3.58102 20.179 3.51269 20.0754 3.45245L20.0704 3.44958C19.962 3.38655 19.8681 3.33183 19.7759 3.27058L19.7451 3.25008L19.7115 3.23436C19.1157 2.95497 18.5388 2.68424 17.9976 2.38287C17.9087 2.31242 17.8197 2.21913 17.7169 2.09774C17.711 2.0908 17.7049 2.08345 17.6984 2.07575C17.7458 2.04201 17.7819 2.01955 17.8112 2.00472C17.8412 1.98948 17.8544 1.98736 17.8549 1.98729L17.8628 1.9863L17.8707 1.98505C21.2445 1.45428 24.6091 0.924985 28.0078 0.501402C28.0764 0.497222 28.1735 0.501747 28.2718 0.523405C28.3769 0.546545 28.4538 0.582594 28.5001 0.61966C28.5368 0.649046 28.5569 0.679253 28.5649 0.731675C28.5748 0.7963 28.5709 0.935812 28.4628 1.18069C27.0406 4.32515 24.9564 6.9266 22.4014 9.26402C22.3253 9.32976 22.2372 9.38921 22.1343 9.44903C22.1182 9.35105 22.1046 9.25528 22.0942 9.16359C22.0233 8.31582 21.9516 7.49428 21.8438 6.63538L21.7119 5.58392L20.9842 6.35428C20.7853 6.5649 20.5806 6.76324 20.3679 6.96947C20.2857 7.04906 20.2024 7.12982 20.1177 7.21292C19.8208 7.50424 19.5172 7.81517 19.2473 8.16087L19.2473 8.16083L19.242 8.16784C18.9927 8.49895 18.7332 8.83133 18.4706 9.16767C16.9873 11.0674 15.4055 13.0932 15.0232 15.7283L15.0228 15.7311C14.931 16.3897 14.8857 17.0532 14.8457 17.7042C14.8409 17.7808 14.8363 17.8573 14.8317 17.9335C14.7967 18.5098 14.7625 19.0754 14.7011 19.6409M19.6432 53.0735L14.4535 37.3757C14.6957 35.4429 14.6161 33.8311 13.7297 32.2283L13.7291 32.2272C12.2053 29.4563 12.5317 26.7937 13.9741 24.0667L13.9765 24.0621L13.9766 24.0621C14.2851 23.4934 14.4277 22.8097 14.5098 22.0383C14.5493 21.6674 14.5739 21.288 14.5993 20.8975L14.6019 20.8564C14.6279 20.4559 14.6552 20.044 14.7011 19.6409M14.7011 19.6409C14.7012 19.6404 14.7013 19.64 14.7013 19.6395L15.1981 19.6961M14.7011 19.6409C14.7011 19.6413 14.701 19.6418 14.701 19.6422L15.1981 19.6961M15.1981 19.6961C15.2609 19.1176 15.2959 18.539 15.3308 17.9635C15.3749 17.2355 15.4187 16.5123 15.518 15.8001L14.416 24.3005C14.9426 23.3298 15.0207 22.126 15.098 20.9336C15.125 20.5162 15.152 20.1002 15.1981 19.6961Z" stroke="white"/>
</svg>
