<svg width="33" height="35" viewBox="0 0 33 35" fill="none" xmlns="http://www.w3.org/2000/svg">
<path d="M32.5408 17.0556C32.4577 16.9328 32.3503 16.8283 32.2253 16.7487C32.1002 16.669 31.9602 16.6159 31.8138 16.5925C30.2937 16.5925 17.2044 16.0634 17.2044 0.859264C17.2044 0.631373 17.1138 0.412816 16.9527 0.251673C16.7915 0.0905293 16.573 0 16.3451 0C16.1172 0 15.8986 0.0905293 15.7375 0.251673C15.5764 0.412816 15.4858 0.631373 15.4858 0.859264C15.4858 16.064 2.39648 16.5925 0.942545 16.5925C0.747253 16.5874 0.55764 16.6586 0.414017 16.791C0.284317 16.8558 0.215576 16.9894 0.149428 17.0556C0.0841952 17.1894 0.050293 17.3363 0.050293 17.4852C0.050293 17.6341 0.0841952 17.781 0.149428 17.9148C0.229248 18.0549 0.344597 18.1715 0.483843 18.2528C0.623089 18.3341 0.781308 18.3772 0.942545 18.3779H1.0074C2.52813 18.3779 15.5507 18.907 15.5507 34.1111C15.5507 34.224 15.5729 34.3357 15.6161 34.44C15.6593 34.5442 15.7226 34.639 15.8023 34.7187C15.8821 34.7985 15.9769 34.8618 16.0811 34.905C16.1854 34.9482 16.2971 34.9704 16.4099 34.9704C16.5228 34.9704 16.6345 34.9482 16.7388 34.905C16.843 34.8618 16.9377 34.7985 17.0175 34.7187C17.0973 34.639 17.1606 34.5442 17.2038 34.44C17.247 34.3357 17.2692 34.224 17.2692 34.1111C17.2692 18.9725 30.2924 18.3779 31.8125 18.3779C31.9719 18.369 32.1269 18.3224 32.2648 18.2419C32.4027 18.1614 32.5195 18.0493 32.6056 17.9148C32.6764 17.7799 32.7079 17.6278 32.6965 17.4759C32.685 17.324 32.631 17.1783 32.5408 17.0556ZM16.3464 27.6326C14.4294 21.3525 9.73557 18.6425 6.03522 17.4512C9.73687 16.2612 14.4307 13.5511 16.3464 7.2697C18.2634 13.5498 22.9572 16.2599 26.6576 17.4512C22.9566 18.6418 18.2634 21.3525 16.3464 27.6326Z" fill="white"/>
</svg>
